<svg xmlns="http://www.w3.org/2000/svg" version="1.1" xmlns:xlink="http://www.w3.org/1999/xlink" xmlns:svgjs="http://svgjs.dev/svgjs" width="1500" height="935" viewBox="0 0 1500 935"><g transform="matrix(1,0,0,1,-0.9090909090909918,0.3785425101214628)"><svg viewBox="0 0 396 247" data-background-color="#000000" preserveAspectRatio="xMidYMid meet" height="935" width="1500" xmlns="http://www.w3.org/2000/svg" xmlns:xlink="http://www.w3.org/1999/xlink"><g id="tight-bounds" transform="matrix(1,0,0,1,0.2400000000000091,-0.09999999999999432)"><svg viewBox="0 0 395.52 247.2" height="247.2" width="395.52"><g><svg></svg></g><g><svg viewBox="0 0 395.52 247.2" height="247.2" width="395.52"><mask id="f51260ab-0f4c-478c-bbbd-201bed2a17b6"><rect width="395.52" height="247.2" fill="white"></rect><g transform="matrix(1,0,0,1,0,64.78312055346228)" id="clone"><svg viewBox="0 0 395.52 117.63375889307544" height="117.63375889307544" width="395.52"><g><svg viewBox="0 0 395.52 117.63375889307544" height="117.63375889307544" width="395.52"><g><svg viewBox="0 0 395.52 117.63375889307544" height="117.63375889307544" width="395.52"><g><svg viewBox="0 0 395.52 117.63375889307544" height="117.63375889307544" width="395.52"><g id="SvgjsG1680"><svg viewBox="0 0 395.52 117.63375889307544" height="117.63375889307544" width="395.52" id="SvgjsSvg1679"><g><svg viewBox="0 0 395.52 70.91333798983597" height="70.91333798983597" width="395.52"><g transform="matrix(1,0,0,1,0,0)"><svg width="395.52" viewBox="-1.73 -33.79 203.70999999999998 37.349999999999994" height="70.91333798983597" data-palette-color="#ffffff"><path d="M1.27 0L1.27 0 1.27-0.76Q3.54-0.73 4.39-1.42 5.25-2.1 5.25-3.66L5.25-3.66 5.25-16.48Q5.25-18.29 4.36-19.08 3.47-19.87 1.27-20.02L1.27-20.02 1.27-20.78Q1.95-20.68 2.71-20.67 3.47-20.65 4.27-20.65L4.27-20.65Q5.54-20.65 6.7-20.78 7.86-20.9 8.89-21.22L8.89-21.22 8.89-16.77Q9.94-19.14 11.72-20.24 13.5-21.34 15.63-21.34L15.63-21.34Q20.09-21.34 21.51-16.63L21.51-16.63Q22.58-19.29 24.52-20.31 26.46-21.34 28.83-21.34L28.83-21.34Q31.96-21.34 33.63-19.02 35.3-16.7 35.3-12.18L35.3-12.18 35.3-3.66Q35.3-2.03 36.16-1.38 37.01-0.73 39.31-0.76L39.31-0.76 39.31 0Q38.48-0.05 36.79-0.11 35.11-0.17 33.52-0.17L33.52-0.17Q32.08-0.17 30.7-0.11 29.32-0.05 28.64 0L28.64 0 28.64-0.76Q30.4-0.73 31.03-1.38 31.67-2.03 31.67-3.66L31.67-3.66 31.67-14.16Q31.67-17.21 30.62-18.63 29.57-20.04 27.49-20.04L27.49-20.04Q25.78-20.04 24.29-19.03 22.8-18.02 21.78-15.53L21.78-15.53Q22.07-14.01 22.07-12.18L22.07-12.18 22.07-3.66Q22.07-2.03 22.72-1.38 23.36-0.73 25.12-0.76L25.12-0.76 25.12 0Q24.44-0.05 23.05-0.11 21.66-0.17 20.29-0.17L20.29-0.17Q18.87-0.17 17.49-0.11 16.11-0.05 15.43 0L15.43 0 15.43-0.76Q17.16-0.73 17.81-1.38 18.46-2.03 18.46-3.66L18.46-3.66 18.46-14.16Q18.46-17.21 17.41-18.63 16.36-20.04 14.28-20.04L14.28-20.04Q10.96-20.04 8.89-15.06L8.89-15.06 8.89-3.66Q8.89-2.1 9.53-1.42 10.18-0.73 11.94-0.76L11.94-0.76 11.94 0Q10.89-0.05 9.64-0.11 8.4-0.17 7.03-0.17L7.03-0.17Q5.62-0.17 4.13-0.13 2.64-0.1 1.27 0ZM52.93 0.56L52.93 0.56Q49.97 0.56 47.63-0.84 45.29-2.25 43.93-4.71 42.58-7.18 42.58-10.35L42.58-10.35Q42.58-13.48 43.92-15.97 45.26-18.46 47.6-19.9 49.95-21.34 52.93-21.34L52.93-21.34Q55.91-21.34 58.25-19.9 60.59-18.46 61.95-15.97 63.3-13.48 63.3-10.35L63.3-10.35Q63.3-7.25 61.95-4.77 60.59-2.29 58.25-0.87 55.91 0.56 52.93 0.56ZM52.93-0.17L52.93-0.17Q54.81-0.17 56.26-1.54 57.71-2.91 58.54-5.21 59.37-7.52 59.37-10.35L59.37-10.35Q59.37-13.21 58.54-15.53 57.71-17.85 56.26-19.21 54.81-20.58 52.93-20.58L52.93-20.58Q51.07-20.58 49.62-19.21 48.17-17.85 47.34-15.53 46.51-13.21 46.51-10.35L46.51-10.35Q46.51-7.5 47.34-5.19 48.17-2.88 49.62-1.53 51.07-0.17 52.93-0.17ZM80.88-12.4L76.8 0.51 76.09 0.51 69.21-17.6Q68.38-19.82 66.06-19.97L66.06-19.97 66.06-20.75Q66.91-20.73 67.84-20.7 68.77-20.68 70.26-20.68L70.26-20.68Q72.24-20.68 73.29-20.68 74.34-20.68 75.48-20.75L75.48-20.75 75.48-19.97Q73.9-19.97 73.36-19.23 72.82-18.48 73.6-16.38L73.6-16.38 77.8-5.22 80.93-15.33Q81.39-16.8 81.64-17.8 81.88-18.8 81.34-19.35 80.81-19.9 78.93-19.97L78.93-19.97 78.93-20.75Q80.44-20.68 81.1-20.67 81.76-20.65 82.73-20.65L82.73-20.65Q83.78-20.65 84.64-20.65 85.49-20.65 86.13-20.75L86.13-20.75 86.13-19.97Q84.35-19.56 83.15-17.69 81.95-15.82 80.88-12.4L80.88-12.4ZM87.66 0L87.66 0 87.66-0.76Q89.47-0.81 90.19-1.39 90.91-1.98 90.91-3.66L90.91-3.66 90.91-16.48Q90.91-17.99 90.18-18.88 89.45-19.78 87.66-20.02L87.66-20.02 87.66-20.78Q88.44-20.7 89.12-20.68 89.79-20.65 90.4-20.65L90.4-20.65Q92.89-20.65 94.55-21.22L94.55-21.22 94.55-3.66Q94.55-1.98 95.28-1.39 96.01-0.81 97.84-0.76L97.84-0.76 97.84 0Q97.11-0.05 95.66-0.11 94.21-0.17 92.77-0.17L92.77-0.17Q91.33-0.17 89.86-0.11 88.4-0.05 87.66 0ZM92.94-25.71L92.94-25.71Q91.96-25.71 91.28-26.48 90.59-27.25 90.59-28.27L90.59-28.27Q90.59-29.32 91.28-30.05 91.96-30.79 92.94-30.79L92.94-30.79Q93.86-30.79 94.55-30.05 95.23-29.32 95.23-28.27L95.23-28.27Q95.23-27.25 94.55-26.48 93.86-25.71 92.94-25.71ZM110.44 0.56L110.44 0.56Q107.63 0.56 105.53-0.78 103.43-2.12 102.26-4.52 101.09-6.91 101.09-10.01L101.09-10.01Q101.09-15.11 103.66-18.23 106.24-21.34 110.76-21.34L110.76-21.34Q113.25-21.34 115.09-20.02 116.93-18.7 117.93-16.6 118.94-14.5 118.89-12.18L118.89-12.18 105.02-12.18Q104.99-11.91 104.99-11.43L104.99-11.43Q104.99-5.98 106.74-3.37 108.49-0.76 111.68-0.76L111.68-0.76Q113.74-0.76 115.47-1.73 117.2-2.71 118.2-4.93L118.2-4.93 118.86-4.13Q117.91-1.78 115.68-0.61 113.44 0.56 110.44 0.56ZM110.51-20.56L110.51-20.56Q109.19-20.56 108.03-19.45 106.87-18.33 106.08-16.59 105.29-14.84 105.07-12.99L105.07-12.99 115.03-12.99Q115.1-17.19 113.99-18.87 112.88-20.56 110.51-20.56ZM130.33 0.56L130.33 0.56Q128.8 0.56 127.83 0.21 126.87-0.15 126.28-0.49 125.7-0.83 125.23-0.83L125.23-0.83Q124.82-0.83 124.41-0.54 124.01-0.24 123.84 0.46L123.84 0.46 123.11 0.46Q123.23 0.39 123.29-0.21 123.35-0.81 123.34-2.59 123.33-4.37 123.23-8.01L123.23-8.01 123.94-8.01Q124.43-4.42 125.77-2.31 127.11-0.2 129.68-0.2L129.68-0.2Q131.75-0.2 132.91-1.33 134.07-2.47 134.07-4.69L134.07-4.69Q134.07-6.71 133.2-7.78 132.34-8.84 130.02-9.52L130.02-9.52Q126.92-10.45 125.35-11.54 123.79-12.62 123.79-15.14L123.79-15.14Q123.79-18.02 125.43-19.68 127.06-21.34 129.65-21.34L129.65-21.34Q131.04-21.34 131.82-20.98 132.6-20.63 133.11-20.28 133.61-19.92 134.14-19.92L134.14-19.92Q134.92-19.92 135.36-21.22L135.36-21.22 136.05-21.22Q135.88-19.97 135.86-18.38 135.85-16.8 135.95-14.11L135.95-14.11 135.24-14.11Q135.02-17.11 133.62-18.82 132.21-20.53 130.11-20.53L130.11-20.53Q128.45-20.53 127.47-19.59 126.48-18.65 126.48-16.72L126.48-16.72Q126.48-14.87 127.64-14 128.8-13.13 131.38-12.35L131.38-12.35Q134.19-11.52 135.47-10.18 136.76-8.84 136.76-6.27L136.76-6.27Q136.76-3.03 135.03-1.23 133.31 0.56 130.33 0.56ZM146.69 0.56L146.69 0.56Q144.25 0.56 142.8-0.85 141.34-2.27 141.34-5L141.34-5Q141.34-6.96 142.09-8.11 142.83-9.25 144.03-9.88 145.22-10.5 146.59-10.85 147.96-11.21 149.23-11.54 150.5-11.87 151.36-12.44 152.23-13.01 152.43-14.09L152.43-14.09Q152.26-17.04 151.39-18.68 150.52-20.31 148.91-20.31L148.91-20.31Q147.35-20.31 146.19-19.84 145.03-19.36 145.03-18.55L145.03-18.55Q145.03-17.8 145.57-16.89 146.1-15.99 146.1-15.19L146.1-15.19Q146.1-14.43 145.6-13.99 145.1-13.55 144.27-13.55L144.27-13.55Q143.32-13.55 142.73-14.21 142.15-14.87 142.15-15.99L142.15-15.99Q142.15-17.43 143.17-18.65 144.2-19.87 145.96-20.61 147.71-21.34 149.86-21.34L149.86-21.34Q153.28-21.34 154.68-18.97 156.09-16.6 156.09-12.26L156.09-12.26 156.09-2.51Q156.09-0.61 157.26-0.61L157.26-0.61Q157.92-0.61 158.53-0.79 159.14-0.98 159.56-1.88L159.56-1.88 159.97-1.22Q159.07-0.12 158.2 0.22 157.33 0.56 155.97 0.56L155.97 0.56Q152.5 0.56 152.5-3.13L152.5-3.13Q151.45-1.42 150.01-0.43 148.57 0.56 146.69 0.56ZM148.35-1.17L148.35-1.17Q149.52-1.17 150.61-1.78 151.69-2.39 152.48-3.98L152.48-3.98 152.48-12.52Q152.48-12.92 152.48-13.31L152.48-13.31Q152.21-12.04 151.39-11.52 150.57-11.01 149.52-10.74 148.47-10.47 147.46-10.03 146.44-9.59 145.79-8.52 145.13-7.45 145.13-5.25L145.13-5.25Q145.13-3.25 145.99-2.21 146.86-1.17 148.35-1.17ZM169.34 0.56L169.34 0.56Q167.8 0.56 166.84 0.21 165.88-0.15 165.29-0.49 164.7-0.83 164.24-0.83L164.24-0.83Q163.83-0.83 163.42-0.54 163.02-0.24 162.85 0.46L162.85 0.46 162.12 0.46Q162.24 0.39 162.3-0.21 162.36-0.81 162.35-2.59 162.34-4.37 162.24-8.01L162.24-8.01 162.95-8.01Q163.43-4.42 164.78-2.31 166.12-0.2 168.68-0.2L168.68-0.2Q170.76-0.2 171.92-1.33 173.08-2.47 173.08-4.69L173.08-4.69Q173.08-6.71 172.21-7.78 171.34-8.84 169.03-9.52L169.03-9.52Q165.92-10.45 164.36-11.54 162.8-12.62 162.8-15.14L162.8-15.14Q162.8-18.02 164.44-19.68 166.07-21.34 168.66-21.34L168.66-21.34Q170.05-21.34 170.83-20.98 171.61-20.63 172.11-20.28 172.61-19.92 173.15-19.92L173.15-19.92Q173.93-19.92 174.37-21.22L174.37-21.22 175.06-21.22Q174.88-19.97 174.87-18.38 174.86-16.8 174.96-14.11L174.96-14.11 174.25-14.11Q174.03-17.11 172.63-18.82 171.22-20.53 169.12-20.53L169.12-20.53Q167.46-20.53 166.47-19.59 165.49-18.65 165.49-16.72L165.49-16.72Q165.49-14.87 166.65-14 167.8-13.13 170.39-12.35L170.39-12.35Q173.2-11.52 174.48-10.18 175.76-8.84 175.76-6.27L175.76-6.27Q175.76-3.03 174.04-1.23 172.32 0.56 169.34 0.56ZM185.7 0.56L185.7 0.56Q183.26 0.56 181.8-0.85 180.35-2.27 180.35-5L180.35-5Q180.35-6.96 181.1-8.11 181.84-9.25 183.04-9.88 184.23-10.5 185.6-10.85 186.97-11.21 188.24-11.54 189.51-11.87 190.37-12.44 191.24-13.01 191.44-14.09L191.44-14.09Q191.26-17.04 190.4-18.68 189.53-20.31 187.92-20.31L187.92-20.31Q186.36-20.31 185.2-19.84 184.04-19.36 184.04-18.55L184.04-18.55Q184.04-17.8 184.57-16.89 185.11-15.99 185.11-15.19L185.11-15.19Q185.11-14.43 184.61-13.99 184.11-13.55 183.28-13.55L183.28-13.55Q182.33-13.55 181.74-14.21 181.16-14.87 181.16-15.99L181.16-15.99Q181.16-17.43 182.18-18.65 183.21-19.87 184.97-20.61 186.72-21.34 188.87-21.34L188.87-21.34Q192.29-21.34 193.69-18.97 195.1-16.6 195.1-12.26L195.1-12.26 195.1-2.51Q195.1-0.61 196.27-0.61L196.27-0.61Q196.93-0.61 197.54-0.79 198.15-0.98 198.56-1.88L198.56-1.88 198.98-1.22Q198.08-0.12 197.21 0.22 196.34 0.56 194.98 0.56L194.98 0.56Q191.51 0.56 191.51-3.13L191.51-3.13Q190.46-1.42 189.02-0.43 187.58 0.56 185.7 0.56ZM187.36-1.17L187.36-1.17Q188.53-1.17 189.62-1.78 190.7-2.39 191.48-3.98L191.48-3.98 191.48-12.52Q191.48-12.92 191.48-13.31L191.48-13.31Q191.22-12.04 190.4-11.52 189.58-11.01 188.53-10.74 187.48-10.47 186.47-10.03 185.45-9.59 184.79-8.52 184.14-7.45 184.14-5.25L184.14-5.25Q184.14-3.25 185-2.21 185.87-1.17 187.36-1.17Z" opacity="1" transform="matrix(1,0,0,1,0,0)" fill="black" class="wordmark-text-0" id="SvgjsPath1678" stroke-width="5" stroke="black" stroke-linejoin="round"></path></svg></g></svg></g><g transform="matrix(1,0,0,1,2.5,79.8378261586647)"><svg viewBox="0 0 390.52 37.79593273441074" height="37.79593273441074" width="390.52"><g transform="matrix(1,0,0,1,0,0)"><svg width="390.52" viewBox="-7.1 -46.65 512.84 50.1" height="37.79593273441074" data-palette-color="#ffffff"><path d="M6-15.15L6-15.15 9.9-15.15Q8.8-14.6 7.1-13.15 5.4-11.7 3.55-9.88 1.7-8.05 0.08-6.2-1.55-4.35-2.58-2.88-3.6-1.4-3.6-0.8L-3.6-0.8Q-3.6 0.15-2.8 0.15L-2.8 0.15Q-1.85 0.15 0-1.07 1.85-2.3 4.2-4.45 6.55-6.6 8.9-9.25L8.9-9.25 9.45-9.25Q5.1-4.65 1.88-2.1-1.35 0.45-2.85 0.45L-2.85 0.45Q-3.45 0.45-3.78 0.05-4.1-0.35-4.1-1L-4.1-1Q-4.1-2.3-3.18-4.03-2.25-5.75-0.05-8.4 2.15-11.05 6-15.15ZM5.6 0.45L5.6 0.45Q4.15 0.45 4.15-1.05L4.15-1.05Q4.15-2.95 6.55-6.28 8.95-9.6 14.25-15.15L14.25-15.15 18.15-15.15Q17.5-14.8 16.57-14.13 15.65-13.45 14.5-12.3L14.5-12.3Q11-8.8 8.9-6.55 6.8-4.3 5.85-2.98 4.9-1.65 4.9-0.85L4.9-0.85Q4.9 0.15 5.65 0.15L5.65 0.15Q6.55 0.15 8.2-0.95 9.85-2.05 11.88-3.85 13.9-5.65 15.85-7.8L15.85-7.8 16.45-8.45 16.95-8.45 16.5-7.95Q14.35-5.5 12.23-3.6 10.1-1.7 8.35-0.63 6.6 0.45 5.6 0.45ZM23.75-8.45L23.25-7.95Q21.4-5.8 19.78-4.55 18.15-3.3 16.95-3.3L16.95-3.3Q15.3-3.3 15.3-5.6L15.3-5.6Q15.3-6.75 16.15-8.38 17-10 18.45-11.78 19.9-13.55 21.7-15.15L21.7-15.15 24.7-15.15Q22.3-13.2 20.35-11.15 18.4-9.1 17.23-7.43 16.05-5.75 16.05-4.8L16.05-4.8Q16.05-3.65 17.05-3.65L17.05-3.65Q18.05-3.65 19.48-4.78 20.9-5.9 22.6-7.8L22.6-7.8 23.2-8.45 23.75-8.45ZM67.29 0.35L67.29 0.35Q65.64 0.35 65.64-2.2L65.64-2.2Q65.64-3.9 66.64-5.8 67.64-7.7 69.34-9.47 71.04-11.25 73.14-12.7 75.24-14.15 77.47-15 79.69-15.85 81.69-15.85L81.69-15.85Q83.39-15.85 83.39-14.55L83.39-14.55Q83.39-13.35 81.84-11.48 80.29-9.6 77.94-7.15L77.94-7.15Q76.09-5.25 74.04-3.53 71.99-1.8 70.22-0.73 68.44 0.35 67.29 0.35ZM67.34 0L67.34 0Q68.29 0 69.92-0.95 71.54-1.9 73.57-3.58 75.59-5.25 77.69-7.4L77.69-7.4Q80.04-9.85 81.49-11.63 82.94-13.4 82.94-14.5L82.94-14.5Q82.94-15.35 81.84-15.35L81.84-15.35Q80.84-15.35 79.32-14.55 77.79-13.75 76.07-12.43 74.34-11.1 72.64-9.5 70.94-7.9 69.54-6.25 68.14-4.6 67.29-3.18 66.44-1.75 66.44-0.8L66.44-0.8Q66.44 0 67.34 0ZM87.14-8.45L87.64-8.45 87.19-7.95Q85.14-5.6 83.02-3.68 80.89-1.75 79.12-0.65 77.34 0.45 76.29 0.45L76.29 0.45Q75.74 0.45 75.32 0.03 74.89-0.4 74.89-1.05L74.89-1.05Q74.89-2.75 76.74-5.6 78.59-8.45 81.89-11.85L81.89-11.85 82.14-11.85 85.14-15.15 88.99-15.15Q88.09-14.65 87.14-13.9 86.19-13.15 85.34-12.3L85.34-12.3Q81.64-8.6 79.52-6.38 77.39-4.15 76.49-2.9 75.59-1.65 75.59-0.85L75.59-0.85Q75.59 0.15 76.39 0.15L76.39 0.15Q77.29 0.15 78.89-0.88 80.49-1.9 82.52-3.7 84.54-5.5 86.59-7.8L86.59-7.8 87.14-8.45ZM160.74-19.65L134.99-19.65 134.99-20.1 160.74-20.1 160.74-19.65ZM135.24-9.25L135.24-9.25Q132.34-6 131.14-4.13 129.94-2.25 129.94-1L129.94-1Q129.94 0.15 130.84 0.15L130.84 0.15Q131.79 0.15 132.99-0.6 134.19-1.35 135.96-3.08 137.74-4.8 140.44-7.8L140.44-7.8 141.04-8.45 141.54-8.45 141.09-7.95Q137.04-3.35 134.66-1.45 132.29 0.45 130.69 0.45L130.69 0.45Q128.94 0.45 128.94-1.5L128.94-1.5Q128.94-4.55 132.39-8.45L132.39-8.45Q133.39-9.65 134.29-10.73 135.19-11.8 136.34-13.08 137.49-14.35 139.19-16.18 140.89-18 143.49-20.75 146.09-23.5 149.89-27.5L149.89-27.5Q150.74-27.5 151.84-27.65 152.94-27.8 154.04-28.1L154.04-28.1Q152.44-26.95 149.49-24.13 146.54-21.3 142.84-17.45 139.14-13.6 135.24-9.25ZM186.88 0.45L186.88 0.45Q185.63 0.45 184.85-0.55 184.08-1.55 184.08-3.1L184.08-3.1Q184.08-4.7 185-6.45 185.93-8.2 187.5-9.85 189.08-11.5 191.03-12.83 192.98-14.15 195.05-14.95 197.13-15.75 199.03-15.75L199.03-15.75Q201.48-15.75 201.48-14.25L201.48-14.25Q201.48-13.45 200.6-12.2 199.73-10.95 198.58-10.1L198.58-10.1 196.28-10.1Q197.28-10.55 198.3-11.4 199.33-12.25 200.05-13.13 200.78-14 200.78-14.5L200.78-14.5Q200.78-15.35 199.43-15.35L199.43-15.35Q198.13-15.35 196.33-14.33 194.53-13.3 192.58-11.65 190.63-10 188.98-8.08 187.33-6.15 186.28-4.35 185.23-2.55 185.23-1.25L185.23-1.25Q185.23 0.15 186.98 0.15L186.98 0.15Q188.83 0.15 191.18-0.9 193.53-1.95 195.95-3.75 198.38-5.55 200.38-7.8L200.38-7.8 200.98-8.45 201.48-8.45 201.03-7.95Q198.88-5.5 196.35-3.6 193.83-1.7 191.38-0.63 188.93 0.45 186.88 0.45ZM267.47-30.35L255.97-17.55 255.02-18.6 277.02-43.65 281.12-43.65Q280.07-43.15 278.37-41.65 276.67-40.15 274.7-38.15 272.72-36.15 270.82-34.08 268.92-32 267.47-30.35L267.47-30.35ZM255.02-18.6L255.97-17.55 245.97-6.65 246.62-6.65 245.32-4.9 240.97 0 237.57 0Q239.67-1.65 241.97-3.93 244.27-6.2 246.22-8.5L246.22-8.5 255.02-18.6ZM251.02 0.45L251.02 0.45Q250.32 0.45 249.77-0.18 249.22-0.8 249.22-1.7L249.22-1.7Q249.22-3.1 250.25-4.58 251.27-6.05 252.8-7.5 254.32-8.95 255.87-10.3 257.42-11.65 258.45-12.75 259.47-13.85 259.47-14.65L259.47-14.65Q259.47-15.4 258.57-15.4L258.57-15.4Q257.67-15.4 256.12-14.45 254.57-13.5 252.67-11.95 250.77-10.4 248.87-8.55 246.97-6.7 245.32-4.9L245.32-4.9 244.77-4.9Q246.42-6.75 248.4-8.65 250.37-10.55 252.35-12.15 254.32-13.75 255.97-14.75 257.62-15.75 258.62-15.75L258.62-15.75Q259.37-15.75 259.97-15.25 260.57-14.75 260.57-13.7L260.57-13.7Q260.57-12.3 259.52-10.88 258.47-9.45 256.9-8.05 255.32-6.65 253.75-5.33 252.17-4 251.12-2.85 250.07-1.7 250.07-0.8L250.07-0.8Q250.07 0.15 251.12 0.15L251.12 0.15Q252.12 0.15 253.95-0.98 255.77-2.1 257.9-3.9 260.02-5.7 261.87-7.8L261.87-7.8 262.47-8.45 262.97-8.45 262.52-7.95Q260.47-5.6 258.25-3.7 256.02-1.8 254.1-0.68 252.17 0.45 251.02 0.45ZM363.01-9.15L362.36-8.45 361.86-8.45 362.46-9.1Q367.06-14.15 369.88-17.4 372.71-20.65 373.61-21.95L373.61-21.95 375.76-21.95Q373.76-20.45 370.81-17.48 367.86-14.5 363.01-9.15L363.01-9.15ZM375.16-8.45L374.71-7.95Q371.96-4.9 369.01-3.23 366.06-1.55 363.21-1.55L363.21-1.55Q361.06-1.55 359.61-1.18 358.16-0.8 358.16-0.2L358.16-0.2Q358.16 0.15 358.76 0.15L358.76 0.15Q360.81 0.15 362.71-0.95 364.61-2.05 366.16-3.9 367.71-5.75 368.61-8.05 369.51-10.35 369.51-12.75L369.51-12.75Q369.51-14.2 369.73-15.3 369.96-16.4 370.68-17.6 371.41-18.8 372.96-20.4L372.96-20.4 375.71-21.95Q373.91-20.6 372.93-19.73 371.96-18.85 371.56-18.18 371.16-17.5 371.16-16.7L371.16-16.7Q371.16-15.9 371.46-14.43 371.76-12.95 371.76-11.45L371.76-11.45Q371.76-9.25 370.63-7.13 369.51-5 367.63-3.3 365.76-1.6 363.48-0.58 361.21 0.45 358.86 0.45L358.86 0.45Q357.81 0.45 357.81-0.2L357.81-0.2Q357.81-0.9 359.36-1.4 360.91-1.9 363.16-1.9L363.16-1.9Q368.71-1.9 374.06-7.8L374.06-7.8 374.66-8.45 375.16-8.45ZM418.75 0.35L418.75 0.35Q417.1 0.35 417.1-2.2L417.1-2.2Q417.1-3.9 418.1-5.8 419.1-7.7 420.8-9.47 422.5-11.25 424.6-12.7 426.7-14.15 428.92-15 431.15-15.85 433.15-15.85L433.15-15.85Q434.85-15.85 434.85-14.55L434.85-14.55Q434.85-13.35 433.3-11.48 431.75-9.6 429.4-7.15L429.4-7.15Q427.55-5.25 425.5-3.53 423.45-1.8 421.67-0.73 419.9 0.35 418.75 0.35ZM418.8 0L418.8 0Q419.75 0 421.37-0.95 423-1.9 425.02-3.58 427.05-5.25 429.15-7.4L429.15-7.4Q431.5-9.85 432.95-11.63 434.4-13.4 434.4-14.5L434.4-14.5Q434.4-15.35 433.3-15.35L433.3-15.35Q432.3-15.35 430.77-14.55 429.25-13.75 427.52-12.43 425.8-11.1 424.1-9.5 422.4-7.9 421-6.25 419.6-4.6 418.75-3.18 417.9-1.75 417.9-0.8L417.9-0.8Q417.9 0 418.8 0ZM438.6-8.45L439.1-8.45 438.65-7.95Q436.6-5.6 434.47-3.68 432.35-1.75 430.57-0.65 428.8 0.45 427.75 0.45L427.75 0.45Q427.2 0.45 426.77 0.03 426.35-0.4 426.35-1.05L426.35-1.05Q426.35-2.75 428.2-5.6 430.05-8.45 433.35-11.85L433.35-11.85 433.6-11.85 436.6-15.15 440.45-15.15Q439.55-14.65 438.6-13.9 437.65-13.15 436.8-12.3L436.8-12.3Q433.1-8.6 430.97-6.38 428.85-4.15 427.95-2.9 427.05-1.65 427.05-0.85L427.05-0.85Q427.05 0.15 427.85 0.15L427.85 0.15Q428.75 0.15 430.35-0.88 431.95-1.9 433.97-3.7 436-5.5 438.05-7.8L438.05-7.8 438.6-8.45ZM481.19 0.45L481.19 0.45Q480.59 0.45 480.17 0.03 479.74-0.4 479.74-1.05L479.74-1.05Q479.74-2.95 482.14-6.28 484.54-9.6 489.84-15.15L489.84-15.15 493.74-15.15Q493.09-14.8 492.17-14.08 491.24-13.35 490.09-12.3L490.09-12.3Q486.54-8.85 484.42-6.6 482.29-4.35 481.37-3 480.44-1.65 480.44-0.85L480.44-0.85Q480.44 0.15 481.24 0.15L481.24 0.15Q482.14 0.15 483.82-0.93 485.49-2 487.52-3.83 489.54-5.65 491.44-7.8L491.44-7.8 492.04-8.45 492.54-8.45 492.09-7.95Q489.94-5.5 487.82-3.6 485.69-1.7 483.94-0.63 482.19 0.45 481.19 0.45ZM502.19-27.6L502.19-27.6Q502.74-27.6 502.74-27.2L502.74-27.2Q502.74-26.55 501.92-25.65 501.09-24.75 500.04-24.08 498.99-23.4 498.19-23.4L498.19-23.4Q497.69-23.4 497.69-23.8L497.69-23.8Q497.69-24.4 498.52-25.3 499.34-26.2 500.42-26.9 501.49-27.6 502.19-27.6Z" opacity="1" transform="matrix(1,0,0,1,0,0)" fill="black" class="slogan-text-1" id="SvgjsPath1677" stroke-width="5" stroke="black" stroke-linejoin="round"></path></svg></g></svg></g></svg></g></svg></g></svg></g></svg></g></svg></g></mask><g mask="url(#f51260ab-0f4c-478c-bbbd-201bed2a17b6)"><g><path d="M295.135 7.261l-101.935 239.922h-7.926l-110.288-229.268h-2.897v186.398c0 8.637 1.278 15.171 3.835 19.603 2.557 4.432 7.273 7.529 14.148 9.29 6.875 1.705 16.819 2.898 29.83 3.579v0 6.478c-4.148-0.284-10.597-0.54-19.347-0.767-8.75-0.17-19.006-0.256-30.768-0.256v0c-10.114 0-19.12 0.085-27.018 0.256-7.955 0.227-14.148 0.483-18.58 0.767v0-6.478c11.364-0.511 20.001-1.619 25.91-3.324 5.909-1.648 9.943-4.716 12.103-9.204 2.159-4.546 3.239-11.194 3.239-19.944v0-168.5c0-7.784-0.938-13.694-2.813-17.728-1.875-3.977-5.739-6.818-11.591-8.523-5.796-1.648-14.745-2.756-26.848-3.324v0-6.221c4.887 0.568 11.392 0.881 19.518 0.937 8.068 0.057 17.387 0.085 27.955 0.085v0c13.58 0 23.353-0.341 29.319-1.022v0l99.293 214.097 90.514-214.097c4.432 0.568 9.29 0.881 14.575 0.937 5.227 0.057 10.483 0.085 15.767 0.085v0c10.853 0 20.825-0.085 29.916-0.255 9.034-0.227 15.796-0.483 20.285-0.767v0 6.221c-11.932 0.568-20.853 1.676-26.763 3.324-5.909 1.705-9.801 4.546-11.676 8.523-1.875 4.034-2.813 9.943-2.813 17.728v0 171.483c0 7.614 0.966 13.466 2.898 17.557 1.989 4.091 5.909 6.96 11.762 8.608 5.909 1.705 14.773 2.813 26.592 3.324v0 6.478c-5.966-0.284-13.807-0.54-23.524-0.767-9.716-0.17-20.768-0.256-33.154-0.256v0c-12.614 0-23.58 0.085-32.899 0.256-9.375 0.227-16.762 0.483-22.16 0.767v0-6.478c11.08-0.284 19.376-1.08 24.887-2.386 5.568-1.307 9.262-4.006 11.08-8.097 1.818-4.091 2.727-10.426 2.728-19.006v0-200.035z" fill="#ffffff" fill-rule="nonzero" stroke="none" stroke-width="1" stroke-linecap="butt" stroke-linejoin="miter" stroke-miterlimit="10" stroke-dasharray="" stroke-dashoffset="0" font-family="none" font-weight="none" font-size="none" text-anchor="none" style="mix-blend-mode: normal" data-fill-palette-color="tertiary"></path></g></g><g transform="matrix(1,0,0,1,0,64.78312055346228)"><svg viewBox="0 0 395.52 117.63375889307544" height="117.63375889307544" width="395.52"><g><svg viewBox="0 0 395.52 117.63375889307544" height="117.63375889307544" width="395.52"><g><svg viewBox="0 0 395.52 117.63375889307544" height="117.63375889307544" width="395.52"><g><svg viewBox="0 0 395.52 117.63375889307544" height="117.63375889307544" width="395.52"><g id="textblocktransform"><svg viewBox="0 0 395.52 117.63375889307544" height="117.63375889307544" width="395.52" id="textblock"><g><svg viewBox="0 0 395.52 70.91333798983597" height="70.91333798983597" width="395.52"><g transform="matrix(1,0,0,1,0,0)"><svg width="395.52" viewBox="-1.73 -33.79 203.70999999999998 37.349999999999994" height="70.91333798983597" data-palette-color="#ffffff"><path d="M1.27 0L1.27 0 1.27-0.76Q3.54-0.73 4.39-1.42 5.25-2.1 5.25-3.66L5.25-3.66 5.25-16.48Q5.25-18.29 4.36-19.08 3.47-19.87 1.27-20.02L1.27-20.02 1.27-20.78Q1.95-20.68 2.71-20.67 3.47-20.65 4.27-20.65L4.27-20.65Q5.54-20.65 6.7-20.78 7.86-20.9 8.89-21.22L8.89-21.22 8.89-16.77Q9.94-19.14 11.72-20.24 13.5-21.34 15.63-21.34L15.63-21.34Q20.09-21.34 21.51-16.63L21.51-16.63Q22.58-19.29 24.52-20.31 26.46-21.34 28.83-21.34L28.83-21.34Q31.96-21.34 33.63-19.02 35.3-16.7 35.3-12.18L35.3-12.18 35.3-3.66Q35.3-2.03 36.16-1.38 37.01-0.73 39.31-0.76L39.31-0.76 39.31 0Q38.48-0.05 36.79-0.11 35.11-0.17 33.52-0.17L33.52-0.17Q32.08-0.17 30.7-0.11 29.32-0.05 28.64 0L28.64 0 28.64-0.76Q30.4-0.73 31.03-1.38 31.67-2.03 31.67-3.66L31.67-3.66 31.67-14.16Q31.67-17.21 30.62-18.63 29.57-20.04 27.49-20.04L27.49-20.04Q25.78-20.04 24.29-19.03 22.8-18.02 21.78-15.53L21.78-15.53Q22.07-14.01 22.07-12.18L22.07-12.18 22.07-3.66Q22.07-2.03 22.72-1.38 23.36-0.73 25.12-0.76L25.12-0.76 25.12 0Q24.44-0.05 23.05-0.11 21.66-0.17 20.29-0.17L20.29-0.17Q18.87-0.17 17.49-0.11 16.11-0.05 15.43 0L15.43 0 15.43-0.76Q17.16-0.73 17.81-1.38 18.46-2.03 18.46-3.66L18.46-3.66 18.46-14.16Q18.46-17.21 17.41-18.63 16.36-20.04 14.28-20.04L14.28-20.04Q10.96-20.04 8.89-15.06L8.89-15.06 8.89-3.66Q8.89-2.1 9.53-1.42 10.18-0.73 11.94-0.76L11.94-0.76 11.94 0Q10.89-0.05 9.64-0.11 8.4-0.17 7.03-0.17L7.03-0.17Q5.62-0.17 4.13-0.13 2.64-0.1 1.27 0ZM52.93 0.56L52.93 0.56Q49.97 0.56 47.63-0.84 45.29-2.25 43.93-4.71 42.58-7.18 42.58-10.35L42.58-10.35Q42.58-13.48 43.92-15.97 45.26-18.46 47.6-19.9 49.95-21.34 52.93-21.34L52.93-21.34Q55.91-21.34 58.25-19.9 60.59-18.46 61.95-15.97 63.3-13.48 63.3-10.35L63.3-10.35Q63.3-7.25 61.95-4.77 60.59-2.29 58.25-0.87 55.91 0.56 52.93 0.56ZM52.93-0.17L52.93-0.17Q54.81-0.17 56.26-1.54 57.71-2.91 58.54-5.21 59.37-7.52 59.37-10.35L59.37-10.35Q59.37-13.21 58.54-15.53 57.71-17.85 56.26-19.21 54.81-20.58 52.93-20.58L52.93-20.58Q51.07-20.58 49.62-19.21 48.17-17.85 47.34-15.53 46.51-13.21 46.51-10.35L46.51-10.35Q46.51-7.5 47.34-5.19 48.17-2.88 49.62-1.53 51.07-0.17 52.93-0.17ZM80.88-12.4L76.8 0.51 76.09 0.51 69.21-17.6Q68.38-19.82 66.06-19.97L66.06-19.97 66.06-20.75Q66.91-20.73 67.84-20.7 68.77-20.68 70.26-20.68L70.26-20.68Q72.24-20.68 73.29-20.68 74.34-20.68 75.48-20.75L75.48-20.75 75.48-19.97Q73.9-19.97 73.36-19.23 72.82-18.48 73.6-16.38L73.6-16.38 77.8-5.22 80.93-15.33Q81.39-16.8 81.64-17.8 81.88-18.8 81.34-19.35 80.81-19.9 78.93-19.97L78.93-19.97 78.93-20.75Q80.44-20.68 81.1-20.67 81.76-20.65 82.73-20.65L82.73-20.65Q83.78-20.65 84.64-20.65 85.49-20.65 86.13-20.75L86.13-20.75 86.13-19.97Q84.35-19.56 83.15-17.69 81.95-15.82 80.88-12.4L80.88-12.4ZM87.66 0L87.66 0 87.66-0.76Q89.47-0.81 90.19-1.39 90.91-1.98 90.91-3.66L90.91-3.66 90.91-16.48Q90.91-17.99 90.18-18.88 89.45-19.78 87.66-20.02L87.66-20.02 87.66-20.78Q88.44-20.7 89.12-20.68 89.79-20.65 90.4-20.65L90.4-20.65Q92.89-20.65 94.55-21.22L94.55-21.22 94.55-3.66Q94.55-1.98 95.28-1.39 96.01-0.81 97.84-0.76L97.84-0.76 97.84 0Q97.11-0.05 95.66-0.11 94.21-0.17 92.77-0.17L92.77-0.17Q91.33-0.17 89.86-0.11 88.4-0.05 87.66 0ZM92.94-25.71L92.94-25.71Q91.96-25.71 91.28-26.48 90.59-27.25 90.59-28.27L90.59-28.27Q90.59-29.32 91.28-30.05 91.96-30.79 92.94-30.79L92.94-30.79Q93.86-30.79 94.55-30.05 95.23-29.32 95.23-28.27L95.23-28.27Q95.23-27.25 94.55-26.48 93.86-25.71 92.94-25.71ZM110.44 0.56L110.44 0.56Q107.63 0.56 105.53-0.78 103.43-2.12 102.26-4.52 101.09-6.91 101.09-10.01L101.09-10.01Q101.09-15.11 103.66-18.23 106.24-21.34 110.76-21.34L110.76-21.34Q113.25-21.34 115.09-20.02 116.93-18.7 117.93-16.6 118.94-14.5 118.89-12.18L118.89-12.18 105.02-12.18Q104.99-11.91 104.99-11.43L104.99-11.43Q104.99-5.98 106.74-3.37 108.49-0.76 111.68-0.76L111.68-0.76Q113.74-0.76 115.47-1.73 117.2-2.71 118.2-4.93L118.2-4.93 118.86-4.13Q117.91-1.78 115.68-0.61 113.44 0.56 110.44 0.56ZM110.51-20.56L110.51-20.56Q109.19-20.56 108.03-19.45 106.87-18.33 106.08-16.59 105.29-14.84 105.07-12.99L105.07-12.99 115.03-12.99Q115.1-17.19 113.99-18.87 112.88-20.56 110.51-20.56ZM130.33 0.56L130.33 0.56Q128.8 0.56 127.83 0.21 126.87-0.15 126.28-0.49 125.7-0.83 125.23-0.83L125.23-0.83Q124.82-0.83 124.41-0.54 124.01-0.24 123.84 0.46L123.84 0.46 123.11 0.46Q123.23 0.39 123.29-0.21 123.35-0.81 123.34-2.59 123.33-4.37 123.23-8.01L123.23-8.01 123.94-8.01Q124.43-4.42 125.77-2.31 127.11-0.2 129.68-0.2L129.68-0.2Q131.75-0.2 132.91-1.33 134.07-2.47 134.07-4.69L134.07-4.69Q134.07-6.71 133.2-7.78 132.34-8.84 130.02-9.52L130.02-9.52Q126.92-10.45 125.35-11.54 123.79-12.62 123.79-15.14L123.79-15.14Q123.79-18.02 125.43-19.68 127.06-21.34 129.65-21.34L129.65-21.34Q131.04-21.34 131.82-20.98 132.6-20.63 133.11-20.28 133.61-19.92 134.14-19.92L134.14-19.92Q134.92-19.92 135.36-21.22L135.36-21.22 136.05-21.22Q135.88-19.97 135.86-18.38 135.85-16.8 135.95-14.11L135.95-14.11 135.24-14.11Q135.02-17.11 133.62-18.82 132.21-20.53 130.11-20.53L130.11-20.53Q128.45-20.53 127.47-19.59 126.48-18.65 126.48-16.72L126.48-16.72Q126.48-14.87 127.64-14 128.8-13.13 131.38-12.35L131.38-12.35Q134.19-11.52 135.47-10.18 136.76-8.84 136.76-6.27L136.76-6.27Q136.76-3.03 135.03-1.23 133.31 0.56 130.33 0.56ZM146.69 0.56L146.69 0.56Q144.25 0.56 142.8-0.85 141.34-2.27 141.34-5L141.34-5Q141.34-6.96 142.09-8.11 142.83-9.25 144.03-9.88 145.22-10.5 146.59-10.85 147.96-11.21 149.23-11.54 150.5-11.87 151.36-12.44 152.23-13.01 152.43-14.09L152.43-14.09Q152.26-17.04 151.39-18.68 150.52-20.31 148.91-20.31L148.91-20.31Q147.35-20.31 146.19-19.84 145.03-19.36 145.03-18.55L145.03-18.55Q145.03-17.8 145.57-16.89 146.1-15.99 146.1-15.19L146.1-15.19Q146.1-14.43 145.6-13.99 145.1-13.55 144.27-13.55L144.27-13.55Q143.32-13.55 142.73-14.21 142.15-14.87 142.15-15.99L142.15-15.99Q142.15-17.43 143.17-18.65 144.2-19.87 145.96-20.61 147.71-21.34 149.86-21.34L149.86-21.34Q153.28-21.34 154.68-18.97 156.09-16.6 156.09-12.26L156.09-12.26 156.09-2.51Q156.09-0.61 157.26-0.61L157.26-0.61Q157.92-0.61 158.53-0.79 159.14-0.98 159.56-1.88L159.56-1.88 159.97-1.22Q159.07-0.12 158.2 0.22 157.33 0.56 155.97 0.56L155.97 0.56Q152.5 0.56 152.5-3.13L152.5-3.13Q151.45-1.42 150.01-0.43 148.57 0.56 146.69 0.56ZM148.35-1.17L148.35-1.17Q149.52-1.17 150.61-1.78 151.69-2.39 152.48-3.98L152.48-3.98 152.48-12.52Q152.48-12.92 152.48-13.31L152.48-13.31Q152.21-12.04 151.39-11.52 150.57-11.01 149.52-10.74 148.47-10.47 147.46-10.03 146.44-9.59 145.79-8.52 145.13-7.45 145.13-5.25L145.13-5.25Q145.13-3.25 145.99-2.21 146.86-1.17 148.35-1.17ZM169.34 0.56L169.34 0.56Q167.8 0.56 166.84 0.21 165.88-0.15 165.29-0.49 164.7-0.83 164.24-0.83L164.24-0.83Q163.83-0.83 163.42-0.54 163.02-0.24 162.85 0.46L162.85 0.46 162.12 0.46Q162.24 0.39 162.3-0.21 162.36-0.81 162.35-2.59 162.34-4.37 162.24-8.01L162.24-8.01 162.95-8.01Q163.43-4.42 164.78-2.31 166.12-0.2 168.68-0.2L168.68-0.2Q170.76-0.2 171.92-1.33 173.08-2.47 173.08-4.69L173.08-4.69Q173.08-6.71 172.21-7.78 171.34-8.84 169.03-9.52L169.03-9.52Q165.92-10.45 164.36-11.54 162.8-12.62 162.8-15.14L162.8-15.14Q162.8-18.02 164.44-19.68 166.07-21.34 168.66-21.34L168.66-21.34Q170.05-21.34 170.83-20.98 171.61-20.63 172.11-20.28 172.61-19.92 173.15-19.92L173.15-19.92Q173.93-19.92 174.37-21.22L174.37-21.22 175.06-21.22Q174.88-19.97 174.87-18.38 174.86-16.8 174.96-14.11L174.96-14.11 174.25-14.11Q174.03-17.11 172.63-18.82 171.22-20.53 169.12-20.53L169.12-20.53Q167.46-20.53 166.47-19.59 165.49-18.65 165.49-16.72L165.49-16.72Q165.49-14.87 166.65-14 167.8-13.13 170.39-12.35L170.39-12.35Q173.2-11.52 174.48-10.18 175.76-8.84 175.76-6.27L175.76-6.27Q175.76-3.03 174.04-1.23 172.32 0.56 169.34 0.56ZM185.7 0.56L185.7 0.56Q183.26 0.56 181.8-0.85 180.35-2.27 180.35-5L180.35-5Q180.35-6.96 181.1-8.11 181.84-9.25 183.04-9.88 184.23-10.5 185.6-10.85 186.97-11.21 188.24-11.54 189.51-11.87 190.37-12.44 191.24-13.01 191.44-14.09L191.44-14.09Q191.26-17.04 190.4-18.68 189.53-20.31 187.92-20.31L187.92-20.31Q186.36-20.31 185.2-19.84 184.04-19.36 184.04-18.55L184.04-18.55Q184.04-17.8 184.57-16.89 185.11-15.99 185.11-15.19L185.11-15.19Q185.11-14.43 184.61-13.99 184.11-13.55 183.28-13.55L183.28-13.55Q182.33-13.55 181.74-14.21 181.16-14.87 181.16-15.99L181.16-15.99Q181.16-17.43 182.18-18.65 183.21-19.87 184.97-20.61 186.72-21.34 188.87-21.34L188.87-21.34Q192.29-21.34 193.69-18.97 195.1-16.6 195.1-12.26L195.1-12.26 195.1-2.51Q195.1-0.61 196.27-0.61L196.27-0.61Q196.93-0.61 197.54-0.79 198.15-0.98 198.56-1.88L198.56-1.88 198.98-1.22Q198.08-0.12 197.21 0.22 196.34 0.56 194.98 0.56L194.98 0.56Q191.51 0.56 191.51-3.13L191.51-3.13Q190.46-1.42 189.02-0.43 187.58 0.56 185.7 0.56ZM187.36-1.17L187.36-1.17Q188.53-1.17 189.62-1.78 190.7-2.39 191.48-3.98L191.48-3.98 191.48-12.52Q191.48-12.92 191.48-13.31L191.48-13.31Q191.22-12.04 190.4-11.52 189.58-11.01 188.53-10.74 187.48-10.47 186.47-10.03 185.45-9.59 184.79-8.52 184.14-7.45 184.14-5.25L184.14-5.25Q184.14-3.25 185-2.21 185.87-1.17 187.36-1.17Z" opacity="1" transform="matrix(1,0,0,1,0,0)" fill="#ffffff" class="wordmark-text-0" data-fill-palette-color="primary" id="text-0"></path></svg></g></svg></g><g transform="matrix(1,0,0,1,2.5,79.8378261586647)"><svg viewBox="0 0 390.52 37.79593273441074" height="37.79593273441074" width="390.52"><g transform="matrix(1,0,0,1,0,0)"><svg width="390.52" viewBox="-7.1 -46.65 512.84 50.1" height="37.79593273441074" data-palette-color="#ffffff"><path d="M6-15.15L6-15.15 9.9-15.15Q8.8-14.6 7.1-13.15 5.4-11.7 3.55-9.88 1.7-8.05 0.08-6.2-1.55-4.35-2.58-2.88-3.6-1.4-3.6-0.8L-3.6-0.8Q-3.6 0.15-2.8 0.15L-2.8 0.15Q-1.85 0.15 0-1.07 1.85-2.3 4.2-4.45 6.55-6.6 8.9-9.25L8.9-9.25 9.45-9.25Q5.1-4.65 1.88-2.1-1.35 0.45-2.85 0.45L-2.85 0.45Q-3.45 0.45-3.78 0.05-4.1-0.35-4.1-1L-4.1-1Q-4.1-2.3-3.18-4.03-2.25-5.75-0.05-8.4 2.15-11.05 6-15.15ZM5.6 0.45L5.6 0.45Q4.15 0.45 4.15-1.05L4.15-1.05Q4.15-2.95 6.55-6.28 8.95-9.6 14.25-15.15L14.25-15.15 18.15-15.15Q17.5-14.8 16.57-14.13 15.65-13.45 14.5-12.3L14.5-12.3Q11-8.8 8.9-6.55 6.8-4.3 5.85-2.98 4.9-1.65 4.9-0.85L4.9-0.85Q4.9 0.15 5.65 0.15L5.65 0.15Q6.55 0.15 8.2-0.95 9.85-2.05 11.88-3.85 13.9-5.65 15.85-7.8L15.85-7.8 16.45-8.45 16.95-8.45 16.5-7.95Q14.35-5.5 12.23-3.6 10.1-1.7 8.35-0.63 6.6 0.45 5.6 0.45ZM23.75-8.45L23.25-7.95Q21.4-5.8 19.78-4.55 18.15-3.3 16.95-3.3L16.95-3.3Q15.3-3.3 15.3-5.6L15.3-5.6Q15.3-6.75 16.15-8.38 17-10 18.45-11.78 19.9-13.55 21.7-15.15L21.7-15.15 24.7-15.15Q22.3-13.2 20.35-11.15 18.4-9.1 17.23-7.43 16.05-5.75 16.05-4.8L16.05-4.8Q16.05-3.65 17.05-3.65L17.05-3.65Q18.05-3.65 19.48-4.78 20.9-5.9 22.6-7.8L22.6-7.8 23.2-8.45 23.75-8.45ZM67.29 0.35L67.29 0.35Q65.64 0.35 65.64-2.2L65.64-2.2Q65.64-3.9 66.64-5.8 67.64-7.7 69.34-9.47 71.04-11.25 73.14-12.7 75.24-14.15 77.47-15 79.69-15.85 81.69-15.85L81.69-15.85Q83.39-15.85 83.39-14.55L83.39-14.55Q83.39-13.35 81.84-11.48 80.29-9.6 77.94-7.15L77.94-7.15Q76.09-5.25 74.04-3.53 71.99-1.8 70.22-0.73 68.44 0.35 67.29 0.35ZM67.34 0L67.34 0Q68.29 0 69.92-0.95 71.54-1.9 73.57-3.58 75.59-5.25 77.69-7.4L77.69-7.4Q80.04-9.85 81.49-11.63 82.94-13.4 82.94-14.5L82.94-14.5Q82.94-15.35 81.84-15.35L81.84-15.35Q80.84-15.35 79.32-14.55 77.79-13.75 76.07-12.43 74.34-11.1 72.64-9.5 70.94-7.9 69.54-6.25 68.14-4.6 67.29-3.18 66.44-1.75 66.44-0.8L66.44-0.8Q66.44 0 67.34 0ZM87.14-8.45L87.64-8.45 87.19-7.95Q85.14-5.6 83.02-3.68 80.89-1.75 79.12-0.65 77.34 0.45 76.29 0.45L76.29 0.45Q75.74 0.45 75.32 0.03 74.89-0.4 74.89-1.05L74.89-1.05Q74.89-2.75 76.74-5.6 78.59-8.45 81.89-11.85L81.89-11.85 82.14-11.85 85.14-15.15 88.99-15.15Q88.09-14.65 87.14-13.9 86.19-13.15 85.34-12.3L85.34-12.3Q81.64-8.6 79.52-6.38 77.39-4.15 76.49-2.9 75.59-1.65 75.59-0.85L75.59-0.85Q75.59 0.15 76.39 0.15L76.39 0.15Q77.29 0.15 78.89-0.88 80.49-1.9 82.52-3.7 84.54-5.5 86.59-7.8L86.59-7.8 87.14-8.45ZM160.74-19.65L134.99-19.65 134.99-20.1 160.74-20.1 160.74-19.65ZM135.24-9.25L135.24-9.25Q132.34-6 131.14-4.13 129.94-2.25 129.94-1L129.94-1Q129.94 0.15 130.84 0.15L130.84 0.15Q131.79 0.15 132.99-0.6 134.19-1.35 135.96-3.08 137.74-4.8 140.44-7.8L140.44-7.8 141.04-8.45 141.54-8.45 141.09-7.95Q137.04-3.35 134.66-1.45 132.29 0.45 130.69 0.45L130.69 0.45Q128.94 0.45 128.94-1.5L128.94-1.5Q128.94-4.55 132.39-8.45L132.39-8.45Q133.39-9.65 134.29-10.73 135.19-11.8 136.34-13.08 137.49-14.35 139.19-16.18 140.89-18 143.49-20.75 146.09-23.5 149.89-27.5L149.89-27.5Q150.74-27.5 151.84-27.65 152.94-27.8 154.04-28.1L154.04-28.1Q152.44-26.95 149.49-24.13 146.54-21.3 142.84-17.45 139.14-13.6 135.24-9.25ZM186.88 0.45L186.88 0.45Q185.63 0.45 184.85-0.55 184.08-1.55 184.08-3.1L184.08-3.1Q184.08-4.7 185-6.45 185.93-8.2 187.5-9.85 189.08-11.5 191.03-12.83 192.98-14.15 195.05-14.95 197.13-15.75 199.03-15.75L199.03-15.75Q201.48-15.75 201.48-14.25L201.48-14.25Q201.48-13.45 200.6-12.2 199.73-10.95 198.58-10.1L198.58-10.1 196.28-10.1Q197.28-10.55 198.3-11.4 199.33-12.25 200.05-13.13 200.78-14 200.78-14.5L200.78-14.5Q200.78-15.35 199.43-15.35L199.43-15.35Q198.13-15.35 196.33-14.33 194.53-13.3 192.58-11.65 190.63-10 188.98-8.08 187.33-6.15 186.28-4.35 185.23-2.55 185.23-1.25L185.23-1.25Q185.23 0.15 186.98 0.15L186.98 0.15Q188.83 0.15 191.18-0.9 193.53-1.95 195.95-3.75 198.38-5.55 200.38-7.8L200.38-7.8 200.98-8.45 201.48-8.45 201.03-7.95Q198.88-5.5 196.35-3.6 193.83-1.7 191.38-0.63 188.93 0.45 186.88 0.45ZM267.47-30.35L255.97-17.55 255.02-18.6 277.02-43.65 281.12-43.65Q280.07-43.15 278.37-41.65 276.67-40.15 274.7-38.15 272.72-36.15 270.82-34.08 268.92-32 267.47-30.35L267.47-30.35ZM255.02-18.6L255.97-17.55 245.97-6.65 246.62-6.65 245.32-4.9 240.97 0 237.57 0Q239.67-1.65 241.97-3.93 244.27-6.2 246.22-8.5L246.22-8.5 255.02-18.6ZM251.02 0.45L251.02 0.45Q250.32 0.45 249.77-0.18 249.22-0.8 249.22-1.7L249.22-1.7Q249.22-3.1 250.25-4.58 251.27-6.05 252.8-7.5 254.32-8.95 255.87-10.3 257.42-11.65 258.45-12.75 259.47-13.85 259.47-14.65L259.47-14.65Q259.47-15.4 258.57-15.4L258.57-15.4Q257.67-15.4 256.12-14.45 254.57-13.5 252.67-11.95 250.77-10.4 248.87-8.55 246.97-6.7 245.32-4.9L245.32-4.9 244.77-4.9Q246.42-6.75 248.4-8.65 250.37-10.55 252.35-12.15 254.32-13.75 255.97-14.75 257.62-15.75 258.62-15.75L258.62-15.75Q259.37-15.75 259.97-15.25 260.57-14.75 260.57-13.7L260.57-13.7Q260.57-12.3 259.52-10.88 258.47-9.45 256.9-8.05 255.32-6.65 253.75-5.33 252.17-4 251.12-2.85 250.07-1.7 250.07-0.8L250.07-0.8Q250.07 0.15 251.12 0.15L251.12 0.15Q252.12 0.15 253.95-0.98 255.77-2.1 257.9-3.9 260.02-5.7 261.87-7.8L261.87-7.8 262.47-8.45 262.97-8.45 262.52-7.95Q260.47-5.6 258.25-3.7 256.02-1.8 254.1-0.68 252.17 0.45 251.02 0.45ZM363.01-9.15L362.36-8.45 361.86-8.45 362.46-9.1Q367.06-14.15 369.88-17.4 372.71-20.65 373.61-21.95L373.61-21.95 375.76-21.95Q373.76-20.45 370.81-17.48 367.86-14.5 363.01-9.15L363.01-9.15ZM375.16-8.45L374.71-7.95Q371.96-4.9 369.01-3.23 366.06-1.55 363.21-1.55L363.21-1.55Q361.06-1.55 359.61-1.18 358.16-0.8 358.16-0.2L358.16-0.2Q358.16 0.15 358.76 0.15L358.76 0.15Q360.81 0.15 362.71-0.95 364.61-2.05 366.16-3.9 367.71-5.75 368.61-8.05 369.51-10.35 369.51-12.75L369.51-12.75Q369.51-14.2 369.73-15.3 369.96-16.4 370.68-17.6 371.41-18.8 372.96-20.4L372.96-20.4 375.71-21.95Q373.91-20.6 372.93-19.73 371.96-18.85 371.56-18.18 371.16-17.5 371.16-16.7L371.16-16.7Q371.16-15.9 371.46-14.43 371.76-12.95 371.76-11.45L371.76-11.45Q371.76-9.25 370.63-7.13 369.51-5 367.63-3.3 365.76-1.6 363.48-0.58 361.21 0.45 358.86 0.45L358.86 0.45Q357.81 0.45 357.81-0.2L357.81-0.2Q357.81-0.9 359.36-1.4 360.91-1.9 363.16-1.9L363.16-1.9Q368.71-1.9 374.06-7.8L374.06-7.8 374.66-8.45 375.16-8.45ZM418.75 0.35L418.75 0.35Q417.1 0.35 417.1-2.2L417.1-2.2Q417.1-3.9 418.1-5.8 419.1-7.7 420.8-9.47 422.5-11.25 424.6-12.7 426.7-14.15 428.92-15 431.15-15.85 433.15-15.85L433.15-15.85Q434.85-15.85 434.85-14.55L434.85-14.55Q434.85-13.35 433.3-11.48 431.75-9.6 429.4-7.15L429.4-7.15Q427.55-5.25 425.5-3.53 423.45-1.8 421.67-0.73 419.9 0.35 418.75 0.35ZM418.8 0L418.8 0Q419.75 0 421.37-0.95 423-1.9 425.02-3.58 427.05-5.25 429.15-7.4L429.15-7.4Q431.5-9.85 432.95-11.63 434.4-13.4 434.4-14.5L434.4-14.5Q434.4-15.35 433.3-15.35L433.3-15.35Q432.3-15.35 430.77-14.55 429.25-13.75 427.52-12.43 425.8-11.1 424.1-9.5 422.4-7.9 421-6.25 419.6-4.6 418.75-3.18 417.9-1.75 417.9-0.8L417.9-0.8Q417.9 0 418.8 0ZM438.6-8.45L439.1-8.45 438.65-7.95Q436.6-5.6 434.47-3.68 432.35-1.75 430.57-0.65 428.8 0.45 427.75 0.45L427.75 0.45Q427.2 0.45 426.77 0.03 426.35-0.4 426.35-1.05L426.35-1.05Q426.35-2.75 428.2-5.6 430.05-8.45 433.35-11.85L433.35-11.85 433.6-11.85 436.6-15.15 440.45-15.15Q439.55-14.65 438.6-13.9 437.65-13.15 436.8-12.3L436.8-12.3Q433.1-8.6 430.97-6.38 428.85-4.15 427.95-2.9 427.05-1.65 427.05-0.85L427.05-0.85Q427.05 0.15 427.85 0.15L427.85 0.15Q428.75 0.15 430.35-0.88 431.95-1.9 433.97-3.7 436-5.5 438.05-7.8L438.05-7.8 438.6-8.45ZM481.19 0.45L481.19 0.45Q480.59 0.45 480.17 0.03 479.74-0.4 479.74-1.05L479.74-1.05Q479.74-2.95 482.14-6.28 484.54-9.6 489.84-15.15L489.84-15.15 493.74-15.15Q493.09-14.8 492.17-14.08 491.24-13.35 490.09-12.3L490.09-12.3Q486.54-8.85 484.42-6.6 482.29-4.35 481.37-3 480.44-1.65 480.44-0.85L480.44-0.85Q480.44 0.15 481.24 0.15L481.24 0.15Q482.14 0.15 483.82-0.93 485.49-2 487.52-3.83 489.54-5.65 491.44-7.8L491.44-7.8 492.04-8.45 492.54-8.45 492.09-7.95Q489.94-5.5 487.82-3.6 485.69-1.7 483.94-0.63 482.19 0.45 481.19 0.45ZM502.19-27.6L502.19-27.6Q502.74-27.6 502.74-27.2L502.74-27.2Q502.74-26.55 501.92-25.65 501.09-24.75 500.04-24.08 498.99-23.4 498.19-23.4L498.19-23.4Q497.69-23.4 497.69-23.8L497.69-23.8Q497.69-24.4 498.52-25.3 499.34-26.2 500.42-26.9 501.49-27.6 502.19-27.6Z" opacity="1" transform="matrix(1,0,0,1,0,0)" fill="#ffffff" class="slogan-text-1" data-fill-palette-color="secondary" id="text-1"></path></svg></g></svg></g></svg></g></svg></g></svg></g></svg></g></svg></g></svg></g><defs></defs></svg><rect width="395.52" height="247.2" fill="none" stroke="none" visibility="hidden"></rect></g></svg></g></svg>